<?xml version="1.0" standalone="no"?>
<!DOCTYPE svg PUBLIC "-//W3C//DTD SVG 20010904//EN"
 "http://www.w3.org/TR/2001/REC-SVG-20010904/DTD/svg10.dtd">
<svg version="1.0" xmlns="http://www.w3.org/2000/svg"
 width="403.000000pt" height="403.000000pt" viewBox="0 0 403.000000 403.000000"
 preserveAspectRatio="xMidYMid meet">
<metadata>
Created by potrace 1.11, written by Peter Selinger 2001-2013
</metadata>
<g transform="translate(0.000000,403.000000) scale(0.100000,-0.100000)"
fill="#000000" stroke="none">
<path d="M1442 2810 c-45 -16 -95 -35 -110 -43 -146 -76 -237 -145 -308 -236
-46 -59 -114 -179 -114 -203 0 -7 -9 -30 -20 -51 -22 -41 -25 -51 -10 -42 5 3
3 -7 -4 -22 -23 -48 -35 -93 -25 -99 5 -3 9 -10 9 -15 0 -6 -4 -7 -10 -4 -6 3
-7 -1 -4 -9 3 -9 10 -16 14 -16 11 0 23 56 16 69 -12 18 22 32 64 25 36 -6 41
-9 35 -28 -3 -12 -8 -39 -10 -61 -4 -33 -2 -29 12 19 l16 58 45 -6 c25 -3 56
-6 70 -6 23 0 19 -7 -43 -66 -77 -71 -70 -76 11 -7 55 46 79 48 87 7 4 -22 1
-24 -34 -24 l-39 0 0 -394 c0 -217 3 -397 8 -399 4 -3 50 -2 102 0 l95 5 -3
399 c-3 396 -3 399 18 399 11 0 20 5 20 10 0 7 6 7 19 0 29 -15 48 -12 25 4
-17 13 -14 14 26 5 25 -6 72 -14 105 -18 56 -8 53 -9 -46 -10 l-106 -1 -6 -67
c-3 -38 -3 -71 0 -76 2 -4 40 -4 84 -1 l79 7 0 -328 c-1 -180 0 -328 2 -330 2
-1 46 0 98 3 l95 4 -3 325 -4 324 84 -2 83 -2 3 56 c3 49 6 57 22 57 25 0 25
-17 0 -76 -11 -26 -18 -49 -15 -52 3 -3 17 22 32 56 l26 62 47 0 c43 0 48 -3
73 -40 l26 -40 -45 -32 c-55 -39 -51 -49 7 -12 40 25 43 26 56 8 7 -10 13 -21
13 -26 0 -4 5 -8 10 -8 6 0 4 14 -5 31 -9 17 -15 32 -13 33 85 61 97 58 94
-29 -1 -36 -7 -70 -14 -77 -18 -18 -14 -62 9 -92 16 -21 29 -26 62 -26 44 1
83 22 73 39 -4 6 -17 4 -36 -7 -27 -15 -32 -16 -57 -2 -53 29 -38 100 20 100
18 0 38 -5 44 -11 16 -16 37 -1 23 16 -8 9 -6 14 5 19 13 4 15 -7 15 -74 0
-63 3 -80 15 -80 10 0 15 17 18 68 l3 67 2 -67 2 -68 50 0 c38 0 50 4 50 15 0
10 -11 15 -35 15 -28 0 -35 4 -35 20 0 16 7 20 35 20 24 0 35 5 35 14 0 8 3
22 6 30 5 12 2 15 -10 10 -9 -3 -13 -10 -10 -15 3 -5 -9 -9 -25 -9 -21 0 -31
5 -31 15 0 10 11 15 35 15 37 0 42 8 24 42 -8 14 -8 23 0 31 8 8 11 3 12 -18
l1 -30 8 33 c4 19 13 39 20 45 10 9 11 6 5 -13 -17 -55 -17 -55 -6 -38 14 21
31 108 21 108 -4 0 -11 -9 -16 -20 -6 -15 -9 1 -9 54 -1 41 0 74 2 72 1 -1 7
-20 12 -42 8 -33 9 -35 10 -11 1 15 -10 54 -24 87 -29 69 -30 74 -10 66 19 -7
19 8 1 37 -8 12 -17 41 -21 65 -4 23 -11 42 -15 42 -5 0 -11 10 -15 23 -12 43
-47 104 -81 142 -19 21 -34 43 -35 49 -1 14 -132 129 -179 158 -73 44 -171 88
-242 108 -59 16 -102 20 -228 20 -145 0 -160 -2 -238 -30z m201 -21 c-19 -12
-38 -17 -45 -13 -8 5 -3 12 17 20 47 20 63 16 28 -7z m111 5 c3 -9 6 -39 5
-67 l0 -52 -19 60 c-11 33 -20 63 -20 68 0 14 28 7 34 -9z m129 9 c-7 -2 -19
-2 -25 0 -7 3 -2 5 12 5 14 0 19 -2 13 -5z m-162 -66 l17 -57 -36 21 c-21 12
-45 29 -55 38 -17 14 -16 16 10 37 15 13 32 22 38 20 5 -1 17 -28 26 -59z m72
42 c3 -12 2 -31 -3 -42 -8 -21 -9 -21 -10 -2 0 11 -3 30 -6 43 -4 12 -2 22 4
22 5 0 12 -9 15 -21z m87 -10 c44 -19 71 -51 56 -66 -7 -7 -137 -34 -147 -31
-4 2 1 21 11 43 10 21 17 47 15 57 -5 23 5 23 65 -3z m-426 3 c-7 -4 -28 -32
-48 -62 l-36 -55 0 35 c0 42 39 90 73 90 13 0 17 -3 11 -8z m4 -92 c-79 -105
-106 -88 -36 23 17 26 40 54 51 62 19 13 22 13 30 0 6 -11 -6 -35 -45 -85z
m82 96 c0 -11 -19 -15 -25 -6 -3 5 1 10 9 10 9 0 16 -2 16 -4z m479 -22 c14
-12 -19 -1 -35 12 -18 14 -18 14 6 3 14 -6 27 -13 29 -15z m-431 4 c-3 -7 -15
-15 -28 -16 -21 -3 -22 -2 -11 12 16 19 44 21 39 4z m-228 -23 c-9 -10 -11
-35 -8 -73 6 -70 2 -82 -25 -82 -25 0 -47 38 -47 81 0 20 11 35 42 58 46 34
57 39 38 16z m301 -30 c30 -19 58 -35 63 -35 23 0 -7 -12 -58 -24 -56 -13 -57
-13 -76 12 -25 31 -26 58 -2 71 9 6 18 11 19 11 1 0 25 -16 54 -35z m504 -75
l50 -52 -78 53 c-43 30 -93 66 -110 81 l-32 27 60 -28 c35 -17 81 -51 110 -81z
m-647 67 c-1 -1 -18 -15 -37 -32 l-34 -30 34 43 c18 24 35 38 37 32 2 -6 2
-12 0 -13z m462 19 c0 -2 -7 -6 -15 -10 -8 -3 -15 -1 -15 4 0 6 7 10 15 10 8
0 15 -2 15 -4z m190 -42 c0 -2 -9 0 -20 6 -11 6 -20 13 -20 16 0 2 9 0 20 -6
11 -6 20 -13 20 -16z m-156 0 c17 -45 -6 -179 -33 -189 -9 -4 -28 7 -47 27
l-31 33 34 73 c24 52 39 72 52 72 10 0 22 -7 25 -16z m-774 2 c0 -2 -8 -10
-17 -17 -16 -13 -17 -12 -4 4 13 16 21 21 21 13z m333 -21 l17 -24 -37 -10
c-21 -5 -54 -12 -73 -16 l-35 -7 40 41 c45 47 63 50 88 16z m343 -40 c-29 -64
-35 -64 -95 -2 l-34 36 39 6 c22 4 55 11 74 14 19 4 37 7 39 5 1 -1 -9 -28
-23 -59z m248 -78 c16 -21 27 -40 24 -42 -9 -10 -164 -32 -172 -25 -4 5 -2 25
5 47 7 21 13 66 13 101 l1 63 51 -53 c27 -29 63 -70 78 -91z m-1005 78 c-31
-41 -48 -55 -67 -55 -24 0 -23 1 14 34 51 45 88 75 92 76 1 0 -16 -25 -39 -55z
m117 -33 c-10 -10 -106 -19 -106 -10 0 5 19 29 42 54 l41 45 14 -42 c8 -22 12
-44 9 -47z m472 21 c2 -17 -1 -45 -5 -62 l-8 -31 -55 53 -54 52 49 11 c64 15
69 14 73 -23z m96 -34 l29 -27 -28 -36 c-15 -20 -33 -35 -38 -33 -10 3 -35
100 -36 141 -1 21 -2 22 73 -45z m404 -57 c2 -7 -5 -12 -15 -12 -11 0 -40 27
-71 66 l-53 66 67 -54 c37 -30 69 -59 72 -66z m11 71 c20 -44 11 -45 -24 -3
-19 23 -35 44 -35 46 0 13 50 -23 59 -43z m-592 -35 c69 -69 79 -93 36 -84
-16 3 -84 15 -153 27 -133 23 -153 33 -131 67 7 11 131 47 176 51 5 1 38 -27
72 -61z m638 -18 c5 -17 4 -22 -3 -15 -5 6 -13 21 -17 35 -5 17 -4 22 3 15 5
-5 13 -21 17 -35z m-995 14 c18 -20 7 -29 -102 -88 l-88 -46 0 27 c0 15 9 45
20 68 20 41 21 42 77 44 32 1 60 4 62 7 8 8 18 4 31 -12z m463 -33 c5 -38 4
-42 -9 -29 -10 9 -12 24 -8 46 8 40 10 38 17 -17z m-700 -15 c-29 -34 -39 -40
-41 -27 -2 10 2 29 7 44 8 21 17 27 41 27 l31 0 -38 -44z m327 34 c0 -5 -4
-10 -10 -10 -5 0 -10 5 -10 10 0 6 5 10 10 10 6 0 10 -4 10 -10z m550 -77 c0
-14 -56 -16 -98 -4 l-23 6 28 37 28 36 33 -31 c17 -17 32 -37 32 -44z m431
-16 c29 -56 18 -55 -28 0 -27 33 -38 55 -35 72 l4 24 19 -29 c11 -16 29 -46
40 -67z m-955 -2 c11 -33 33 -83 48 -112 14 -29 26 -56 26 -61 0 -15 -169
-124 -181 -116 -8 4 -9 33 -4 93 14 185 21 225 42 247 27 26 46 12 69 -51z
m-132 8 c-43 -74 -104 -196 -104 -211 0 -11 -2 -11 -13 0 -42 44 -57 73 -57
113 l0 41 93 52 c50 28 96 52 100 52 5 0 -4 -21 -19 -47z m278 22 c78 -14 144
-25 145 -25 2 0 3 -10 3 -22 -1 -17 -19 -34 -72 -68 -39 -25 -84 -53 -99 -63
l-28 -18 -35 70 c-34 67 -67 151 -60 151 2 0 68 -11 146 -25z m-597 -95 c-71
-108 -78 -101 -22 20 12 25 28 55 37 66 14 21 15 21 22 3 5 -14 -5 -39 -37
-89z m103 78 c-6 -18 -13 -40 -16 -48 -3 -11 -7 -9 -15 8 -8 18 -6 27 13 47
13 14 25 25 26 25 1 0 -3 -15 -8 -32z m26 -16 c-4 -23 -10 -39 -15 -36 -4 2
-6 10 -4 17 2 7 6 25 10 41 9 43 17 25 9 -22z m1176 35 c0 -8 -3 -16 -6 -19
-9 -10 -42 3 -48 18 -4 10 3 14 24 14 18 0 30 -5 30 -13z m-65 -18 c4 -11 5
-22 3 -23 -1 -1 -46 1 -98 4 -52 4 -93 8 -90 10 6 3 138 27 162 29 9 0 20 -8
23 -20z m-903 -51 c-5 -19 -10 -81 -11 -139 -1 -57 -6 -108 -11 -113 -5 -4
-27 9 -51 31 l-42 40 43 89 c48 99 70 137 77 130 2 -2 0 -19 -5 -38z m443 32
c3 -5 1 -10 -4 -10 -6 0 -11 5 -11 10 0 6 2 10 4 10 3 0 8 -4 11 -10z m532
-12 c-3 -8 -6 -5 -6 6 -1 11 2 17 5 13 3 -3 4 -12 1 -19z m-364 -49 c-19 -27
-38 -49 -43 -49 -12 0 -50 78 -45 92 4 9 23 12 64 10 l60 -4 -36 -49z m493
-47 c19 -29 34 -62 34 -75 -1 -37 -71 56 -97 127 l-22 61 25 -30 c14 -16 41
-54 60 -83z m-196 72 c9 -9 -93 -134 -109 -134 -3 0 -15 17 -26 38 -11 20 -30
53 -42 72 -13 19 -23 37 -23 40 0 9 191 -7 200 -16z m114 -18 c16 -39 16 -39
-4 -21 -11 10 -20 29 -20 43 0 31 3 28 24 -22z m-1295 12 c11 -15 7 -19 -29
-38 -26 -13 -39 -16 -34 -8 15 26 46 69 48 66 1 -2 7 -11 15 -20z m985 -18
c14 -22 26 -42 26 -45 0 -3 11 -23 25 -44 l24 -39 -54 -45 c-35 -29 -62 -43
-73 -40 -10 2 -33 33 -50 69 l-32 65 40 59 c23 33 47 60 54 60 7 0 25 -18 40
-40z m-186 -20 c13 -27 22 -54 20 -59 -9 -26 -143 -161 -159 -161 -23 0 -23
-2 -4 85 9 39 19 92 24 119 9 53 22 66 66 66 26 0 33 -7 53 -50z m580 5 c-3
-3 -9 2 -12 12 -6 14 -5 15 5 6 7 -7 10 -15 7 -18z m-1316 -10 c3 -13 1 -22
-3 -19 -9 5 -13 44 -5 44 2 0 6 -11 8 -25z m602 -7 c-3 -18 -9 -46 -14 -63 -4
-16 -13 -57 -20 -90 -11 -56 -14 -61 -38 -60 -20 0 -33 11 -59 55 -18 30 -32
61 -31 67 2 9 145 115 165 122 1 1 0 -14 -3 -31z m576 3 c18 -45 1 -135 -46
-238 -23 -50 -44 -69 -44 -39 0 7 -16 48 -35 90 l-36 77 55 62 c31 34 56 65
56 70 0 4 8 7 19 7 11 0 23 -12 31 -29z m90 -66 c17 -46 33 -176 23 -186 -7
-7 -13 2 -17 28 -8 43 -42 149 -56 175 -6 10 -10 28 -10 40 0 22 1 22 26 -7
14 -16 29 -39 34 -50z m-1358 -18 c-28 -80 -35 -85 -89 -71 -22 6 -22 7 -6 48
9 22 21 46 27 53 13 13 88 54 93 50 1 -2 -10 -38 -25 -80z m84 46 c18 -27 43
-102 44 -132 0 -11 -13 -13 -66 -8 -37 4 -69 9 -72 11 -2 3 6 31 18 63 42 107
46 110 76 66z m837 -160 c-4 -9 -31 -13 -94 -13 -49 0 -89 3 -89 6 0 3 24 30
53 61 28 30 56 62 61 71 7 12 16 2 41 -49 18 -35 30 -69 28 -76z m401 64 c8
-28 22 -75 30 -103 l14 -52 -60 -12 c-33 -6 -66 -14 -74 -17 -20 -8 -17 17 9
78 13 30 29 80 37 111 7 32 16 55 21 53 4 -3 14 -29 23 -58z m110 -29 c5 -28
-10 -78 -24 -78 -4 0 -11 30 -15 67 -4 36 -9 74 -12 82 -2 9 7 3 20 -13 14
-16 28 -42 31 -58z m-1271 15 c-5 -14 -8 -13 -20 3 -7 10 -13 24 -13 32 0 12
4 12 19 -2 11 -10 17 -25 14 -33z m380 -13 l36 -60 -127 0 -127 0 90 60 c50
33 91 60 91 60 1 0 18 -27 37 -60z m592 -46 c20 -47 34 -88 31 -91 -8 -9 -176
70 -176 83 0 8 96 94 105 94 2 0 19 -39 40 -86z m-915 25 l35 -30 -35 7 c-41
8 -36 4 -44 32 -10 30 2 27 44 -9z m1260 -125 c0 -66 -4 -95 -14 -103 -11 -9
-16 -5 -26 18 -10 25 -9 38 4 77 9 26 16 66 16 88 0 30 3 37 10 26 5 -8 10
-56 10 -106z m-1620 90 c0 -8 -5 -12 -10 -9 -6 4 -8 11 -5 16 9 14 15 11 15
-7z m1582 -44 c-4 -34 -7 -40 -12 -25 -4 11 -3 33 3 48 12 37 15 31 9 -23z
m-1202 31 c23 -6 20 -8 -23 -20 -51 -15 -63 -11 -54 14 7 16 34 18 77 6z m440
-16 c-7 -9 -15 -13 -19 -10 -3 3 1 10 9 15 21 14 24 12 10 -5z m238 -1 c16
-29 3 -54 -29 -54 -16 0 -29 4 -29 9 0 5 -35 7 -79 4 -44 -3 -87 -3 -97 1 -15
6 -15 9 6 31 22 23 30 25 121 25 81 0 100 -3 107 -16z m-315 -7 c8 -21 -8 -41
-24 -31 -8 5 -52 16 -99 25 l-85 17 101 1 c77 1 103 -2 107 -12z m34 7 c-3 -3
-12 -4 -19 -1 -8 3 -5 6 6 6 11 1 17 -2 13 -5z m-378 -35 c-8 -5 -32 -8 -54
-8 l-40 1 50 17 c47 17 76 10 44 -10z m812 -4 c75 -35 71 -43 -12 -29 -25 4
-41 15 -53 35 -9 16 -15 29 -13 29 2 0 38 -16 78 -35z m-81 -5 c10 -18 8 -20
-24 -20 -29 0 -33 3 -29 20 3 11 14 20 24 20 10 0 23 -9 29 -20z m380 -40 c0
-15 -13 -56 -26 -78 0 -1 -27 13 -59 33 -34 20 -52 36 -44 39 29 9 95 24 112
25 11 1 17 -6 17 -19z m-217 -14 c5 -1 -8 -14 -29 -28 -42 -30 -48 -29 -69 11
l-14 28 52 -4 c29 -3 56 -5 60 -7z m259 -8 c3 -7 -1 -26 -8 -43 l-13 -30 -1
43 c0 40 12 57 22 30z m-99 -63 c17 -12 17 -17 5 -41 -12 -25 -18 -28 -68 -28
l-55 -1 4 50 c5 71 15 80 60 54 20 -11 44 -26 54 -34z m67 10 c0 -14 -4 -25
-10 -25 -11 0 -14 33 -3 43 11 11 13 8 13 -18z m49 -26 c-17 -10 -24 4 -14 29
6 16 7 16 17 -2 8 -14 7 -21 -3 -27z m-63 -36 c3 -17 -1 -20 -16 -16 -23 6
-22 5 -14 28 9 21 26 14 30 -12z m78 2 c4 -11 -1 -15 -19 -15 -18 0 -23 4 -19
15 4 8 12 15 19 15 7 0 15 -7 19 -15z"/>
<path d="M55 2170 l0 -80 28 0 27 0 0 80 0 80 -27 0 -28 0 0 -80z"/>
<path d="M130 2170 l0 -80 55 0 c48 0 55 2 55 20 0 16 -7 20 -30 20 -16 0 -30
5 -30 10 0 6 11 10 25 10 18 0 25 5 25 20 0 15 -7 20 -25 20 -14 0 -25 5 -25
10 0 6 11 10 25 10 18 0 25 5 25 20 0 17 -7 20 -50 20 l-50 0 0 -80z"/>
<path d="M250 2170 l0 -80 55 0 c48 0 55 2 55 20 0 16 -7 20 -30 20 -16 0 -30
5 -30 10 0 6 11 10 25 10 18 0 25 5 25 20 0 15 -7 20 -25 20 -34 0 -32 18 2
22 17 2 29 10 31 21 3 14 -5 17 -52 17 l-56 0 0 -80z"/>
<path d="M370 2170 l0 -81 57 3 c46 2 59 7 61 21 3 14 -4 17 -32 17 -20 0 -36
5 -36 10 0 6 14 10 30 10 23 0 30 4 30 20 0 16 -7 20 -30 20 -16 0 -30 5 -30
10 0 6 14 10 30 10 23 0 30 4 30 20 0 18 -7 20 -55 20 l-55 0 0 -80z"/>
<path d="M183 2060 c-87 -18 -145 -69 -170 -152 -36 -122 6 -211 150 -312 37
-26 74 -57 82 -69 24 -34 19 -84 -11 -114 -23 -23 -31 -25 -85 -21 -41 3 -69
11 -90 27 -17 13 -35 19 -39 15 -5 -5 -10 -40 -12 -79 -3 -68 -2 -70 24 -83
96 -46 255 -35 331 22 79 59 115 177 83 274 -22 67 -45 94 -119 144 -120 80
-148 118 -122 167 17 34 33 41 88 41 29 0 54 -8 80 -25 43 -30 43 -30 51 62 5
57 4 64 -17 77 -23 15 -125 37 -161 35 -12 -1 -40 -5 -63 -9z"/>
<path d="M710 2060 c-104 -22 -173 -110 -173 -223 0 -46 6 -74 23 -107 25 -49
39 -63 120 -123 98 -71 110 -86 110 -133 0 -34 -5 -47 -27 -64 -37 -29 -124
-25 -171 9 -18 12 -36 19 -42 16 -5 -3 -10 -39 -10 -80 l0 -73 48 -19 c33 -13
73 -18 133 -18 74 1 93 5 142 29 85 44 127 115 127 217 0 106 -32 155 -149
233 -80 53 -111 88 -111 127 0 69 93 93 177 45 l42 -24 6 41 c4 23 5 60 3 81
-3 35 -7 40 -42 52 -52 19 -152 25 -206 14z"/>
<path d="M1045 2013 c-18 -14 -18 -15 -2 -9 10 3 23 6 28 6 5 0 9 5 9 10 0 14
-12 12 -35 -7z"/>
<path d="M1912 1848 c-19 -19 -14 -40 20 -75 24 -25 29 -36 20 -45 -9 -9 -16
-7 -31 6 -13 12 -21 14 -26 6 -12 -19 16 -41 49 -38 27 3 31 7 34 34 2 24 -3
36 -22 52 -34 26 -34 46 -1 38 18 -5 25 -2 25 8 0 25 -47 35 -68 14z"/>
<path d="M2026 1839 c-20 -16 -26 -29 -26 -58 0 -49 32 -81 82 -81 70 0 103
86 53 135 -30 31 -73 32 -109 4z m99 -33 c31 -47 -26 -104 -75 -74 -19 12 -25
27 -20 58 6 45 69 56 95 16z"/>
<path d="M2490 1845 c0 -8 7 -15 15 -15 12 0 15 -14 15 -65 0 -37 4 -65 10
-65 6 0 10 28 10 65 0 58 2 65 20 65 11 0 20 7 20 15 0 11 -12 15 -45 15 -33
0 -45 -4 -45 -15z"/>
<path d="M2590 1850 c0 -5 9 -24 20 -42 11 -18 20 -50 20 -71 0 -50 23 -45 25
5 1 19 12 49 23 66 25 34 28 52 9 52 -7 0 -20 -15 -29 -32 l-15 -33 -17 33
c-16 30 -36 43 -36 22z"/>
<path d="M2796 1839 c-33 -26 -36 -84 -6 -117 31 -33 92 -30 119 4 25 31 26
55 6 93 -24 46 -74 55 -119 20z m94 -28 c16 -31 12 -59 -12 -75 -30 -21 -44
-20 -68 4 -24 24 -26 53 -4 74 22 23 71 20 84 -3z"/>
<path d="M2940 1780 c0 -64 3 -80 15 -80 11 0 15 12 15 48 l1 47 42 -47 c23
-27 45 -48 50 -48 4 0 7 36 7 80 0 64 -3 80 -15 80 -11 0 -15 -12 -15 -51 l0
-51 -40 44 c-22 23 -40 46 -40 51 0 4 -4 7 -10 7 -6 0 -10 -33 -10 -80z"/>
<path d="M1906 1634 c-11 -29 -6 -43 27 -73 24 -24 28 -31 15 -31 -10 0 -18 5
-18 10 0 12 -10 13 -30 0 -12 -7 -12 -12 4 -29 21 -23 56 -27 74 -9 20 20 14
57 -13 80 -14 12 -25 26 -25 32 0 6 5 5 12 -2 16 -16 25 -15 32 5 4 9 1 20 -6
25 -22 13 -65 9 -72 -8z"/>
<path d="M2022 1627 c-47 -50 -10 -137 58 -137 69 0 107 91 57 138 -32 30 -87
29 -115 -1z m96 -45 c4 -28 -14 -52 -38 -52 -26 0 -43 26 -36 55 6 22 11 26
39 23 25 -2 33 -8 35 -26z"/>
<path d="M2190 1628 c-47 -50 -7 -138 62 -138 45 1 75 24 59 44 -10 12 -17 13
-30 4 -10 -6 -30 -8 -45 -4 -24 6 -27 11 -24 39 3 31 4 32 50 32 55 0 70 11
44 31 -31 22 -92 18 -116 -8z"/>
<path d="M2330 1570 c0 -72 2 -80 19 -80 17 0 20 9 23 64 4 82 1 96 -23 96
-17 0 -19 -8 -19 -80z"/>
<path d="M2411 1588 c-36 -101 -36 -98 -12 -98 12 0 21 6 21 15 0 10 10 15 30
15 18 0 33 -6 36 -15 9 -22 47 -20 40 3 -28 86 -54 137 -72 140 -17 2 -25 -8
-43 -60z m53 -13 c3 -9 0 -15 -9 -15 -9 0 -12 6 -9 15 4 8 7 15 9 15 2 0 5 -7
9 -15z"/>
<path d="M2540 1569 l0 -80 37 3 c27 2 39 8 41 21 2 12 -3 17 -17 17 -19 0
-21 6 -21 60 0 53 -2 60 -20 60 -18 0 -20 -7 -20 -81z"/>
<path d="M2680 1570 c0 -72 2 -80 19 -80 11 0 22 6 24 13 4 10 6 10 6 0 1 -7
10 -13 21 -13 16 0 20 7 20 30 0 17 5 30 10 30 6 0 13 -13 17 -30 8 -41 31
-38 51 8 l17 37 3 -37 c3 -30 7 -38 23 -38 22 0 22 0 7 90 -10 57 -16 70 -30
70 -10 0 -21 -8 -24 -17 -18 -58 -21 -60 -38 -20 -10 24 -23 37 -35 37 -15 0
-20 -11 -25 -60 -7 -60 -30 -99 -26 -44 5 78 0 104 -20 104 -18 0 -20 -7 -20
-80z"/>
<path d="M2920 1570 c0 -73 2 -80 20 -80 16 0 20 7 20 35 0 28 4 35 20 35 18
0 40 26 40 49 0 20 -33 41 -66 41 l-34 0 0 -80z m60 30 c0 -5 -4 -10 -10 -10
-5 0 -10 5 -10 10 0 6 5 10 10 10 6 0 10 -4 10 -10z"/>
<path d="M3030 1570 l0 -80 40 0 c33 0 40 3 40 20 0 13 -7 20 -20 20 -18 0
-20 7 -20 60 0 53 -2 60 -20 60 -18 0 -20 -7 -20 -80z"/>
<path d="M3122 1573 c3 -70 5 -78 23 -78 18 0 20 8 23 78 3 77 3 77 -23 77
-26 0 -26 0 -23 -77z"/>
<path d="M3202 1630 c-15 -14 -22 -33 -22 -56 0 -69 78 -108 130 -66 20 16 21
19 6 31 -13 11 -19 11 -31 1 -18 -15 -61 -6 -69 16 -3 8 -1 25 5 36 9 17 18
19 49 15 50 -6 72 7 45 27 -29 22 -87 20 -113 -4z"/>
<path d="M3366 1589 c-11 -33 -23 -62 -28 -65 -4 -3 -8 -12 -8 -20 0 -19 39
-18 46 1 4 8 17 15 30 15 14 0 27 -7 30 -15 6 -15 44 -22 44 -7 0 4 -12 40
-27 80 -22 56 -32 72 -48 72 -16 0 -24 -13 -39 -61z m48 -14 c3 -8 1 -15 -4
-15 -6 0 -10 7 -10 15 0 8 2 15 4 15 2 0 6 -7 10 -15z"/>
<path d="M3470 1630 c0 -11 7 -20 15 -20 12 0 15 -13 15 -60 0 -53 2 -60 20
-60 18 0 20 7 20 60 0 33 4 60 10 60 6 0 10 9 10 20 0 17 -7 20 -45 20 -38 0
-45 -3 -45 -20z"/>
<path d="M3570 1570 c0 -73 2 -80 20 -80 18 0 20 7 20 80 0 73 -2 80 -20 80
-18 0 -20 -7 -20 -80z"/>
<path d="M3640 1618 c-23 -38 -24 -51 -8 -81 27 -52 83 -62 123 -22 54 53 18
135 -58 135 -31 0 -41 -5 -57 -32z m100 -28 c22 -40 -35 -81 -68 -48 -7 7 -12
19 -12 28 0 40 61 55 80 20z"/>
<path d="M3800 1570 c0 -73 2 -80 19 -80 16 0 20 8 23 38 l3 37 22 -37 c37
-64 53 -51 53 42 0 63 -3 80 -14 80 -10 0 -16 -14 -18 -42 l-3 -43 -24 43
c-15 25 -32 42 -43 42 -16 0 -18 -9 -18 -80z"/>
<path d="M3952 1638 c-19 -19 -14 -39 15 -70 14 -15 23 -31 19 -35 -4 -4 -11
-1 -16 7 -7 12 -12 12 -22 2 -29 -29 35 -69 68 -42 23 20 17 67 -11 86 -14 9
-25 21 -25 27 0 8 3 8 11 0 14 -14 39 -6 39 12 0 24 -57 34 -78 13z"/>
<path d="M1925 1425 c-31 -30 -32 -73 -4 -109 45 -57 139 -19 139 56 0 39 -40
78 -80 78 -19 0 -40 -9 -55 -25z m93 -17 c7 -7 12 -27 12 -45 0 -26 -6 -36
-25 -45 -40 -18 -75 3 -75 45 0 40 15 57 50 57 14 0 31 -5 38 -12z"/>
<path d="M2077 1443 c-4 -3 -7 -39 -7 -80 0 -58 3 -73 15 -73 10 0 15 11 15
35 0 32 2 35 30 35 20 0 30 5 30 15 0 10 -10 15 -30 15 -20 0 -30 5 -30 15 0
10 10 15 30 15 20 0 30 5 30 15 0 11 -11 15 -38 15 -21 0 -42 -3 -45 -7z"/>
<path d="M2217 1444 c-13 -13 -7 -24 13 -24 18 0 20 -7 20 -65 0 -53 3 -65 16
-65 12 0 15 9 14 38 -4 74 0 92 16 92 9 0 14 6 12 13 -5 13 -79 22 -91 11z"/>
<path d="M2320 1370 l0 -80 45 0 c33 0 45 4 45 15 0 10 -10 15 -30 15 -23 0
-30 4 -30 20 0 16 7 20 30 20 20 0 30 5 30 15 0 10 -10 15 -30 15 -20 0 -30 5
-30 15 0 10 10 15 30 15 20 0 30 5 30 15 0 11 -12 15 -45 15 l-45 0 0 -80z"/>
<path d="M2451 1424 c-39 -33 -41 -74 -6 -109 28 -29 95 -35 115 -10 19 22 4
31 -26 15 -53 -29 -108 37 -68 81 18 20 69 26 79 9 9 -15 25 -12 25 5 0 18
-31 35 -64 35 -13 0 -38 -12 -55 -26z"/>
<path d="M2590 1370 c0 -64 3 -80 15 -80 10 0 15 11 15 35 0 32 2 35 30 35 28
0 30 -3 30 -35 0 -24 5 -35 15 -35 12 0 15 16 15 80 0 64 -3 80 -15 80 -10 0
-15 -10 -15 -33 0 -29 -3 -32 -30 -33 -28 -2 -30 1 -30 32 0 24 -5 34 -15 34
-12 0 -15 -16 -15 -80z"/>
<path d="M2730 1373 c0 -67 3 -83 15 -83 11 0 15 12 15 48 l1 47 42 -47 c24
-27 46 -48 50 -48 4 0 7 36 7 80 0 64 -3 80 -15 80 -11 0 -15 -12 -15 -49 l0
-50 -50 52 -50 52 0 -82z"/>
<path d="M2913 1438 c-12 -6 -27 -26 -34 -45 -9 -28 -8 -39 8 -66 16 -28 25
-32 64 -35 55 -4 80 19 82 74 2 63 -61 101 -120 72z m81 -34 c23 -22 20 -60
-6 -78 -30 -21 -44 -20 -68 4 -36 36 -16 90 35 90 13 0 31 -7 39 -16z"/>
<path d="M3057 1443 c-4 -3 -7 -39 -7 -80 l0 -73 46 0 c32 0 44 4 41 13 -2 6
-16 12 -30 12 -27 -1 -27 0 -27 67 0 63 -6 79 -23 61z"/>
<path d="M3175 1425 c-31 -30 -33 -82 -5 -113 29 -31 89 -30 118 1 47 50 10
137 -58 137 -19 0 -40 -9 -55 -25z m100 -29 c17 -26 11 -50 -19 -75 -22 -19
-64 -5 -78 24 -27 59 62 105 97 51z"/>
<path d="M3359 1435 c-43 -23 -48 -85 -11 -127 10 -12 30 -18 57 -18 44 0 67
16 79 58 7 20 4 22 -33 22 -43 0 -56 -18 -21 -27 28 -7 25 -21 -5 -29 -58 -14
-106 69 -56 96 25 13 68 13 76 0 9 -15 25 -12 25 5 0 33 -65 45 -111 20z"/>
<path d="M3490 1442 c0 -4 11 -24 25 -44 15 -22 25 -51 25 -72 0 -20 5 -36 10
-36 6 0 10 16 10 36 0 21 10 50 25 72 14 20 25 40 25 44 0 17 -30 7 -41 -14
-17 -33 -17 -33 -40 -5 -20 26 -39 35 -39 19z"/>
</g>
</svg>
